<svg xmlns="http://www.w3.org/2000/svg" xmlns:xlink="http://www.w3.org/1999/xlink" width="500" zoomAndPan="magnify" viewBox="0 0 375 374.999991" height="500" preserveAspectRatio="xMidYMid meet" version="1.0"><defs><g/><clipPath id="b27dd4bd10"><path d="M 134 117 L 241 117 L 241 186.054688 L 134 186.054688 Z M 134 117 " clip-rule="nonzero"/></clipPath></defs><rect x="-37.5" width="450" fill="#ffffff" y="-37.499999" height="449.999989" fill-opacity="1"/><rect x="-37.5" width="450" fill="#ffffff" y="-37.499999" height="449.999989" fill-opacity="1"/><g clip-path="url(#b27dd4bd10)"><path fill="#5e17eb" d="M 185.910156 180.703125 L 185.910156 176.960938 L 184.558594 176.113281 C 182.0625 174.597656 179.519531 173.886719 176.59375 174.089844 C 172.453125 174.367188 168.019531 176.457031 164.207031 178.03125 C 159.125 180.132812 154.15625 181.90625 148.546875 181.804688 L 146.105469 181.75 L 138.214844 135.527344 C 136.851562 135.703125 135.464844 135.773438 134.027344 135.703125 L 143.59375 186.003906 C 159.511719 186.277344 171.363281 172.652344 185.910156 180.703125 Z M 186.105469 173.601562 C 173.207031 165.671875 162.726562 179.117188 148.613281 178.839844 L 140.140625 129.257812 C 156.410156 130.058594 167.019531 109.507812 186.105469 121.992188 Z M 188.90625 173.601562 L 188.90625 121.992188 C 207.992188 109.507812 218.609375 130.058594 234.859375 129.257812 L 226.386719 178.839844 C 212.292969 179.117188 201.804688 165.671875 188.90625 173.601562 Z M 189.078125 180.703125 C 203.644531 172.652344 215.484375 186.277344 231.421875 186.003906 L 240.972656 135.703125 C 239.542969 135.773438 238.144531 135.703125 236.785156 135.527344 L 228.910156 181.75 L 226.453125 181.804688 C 220.863281 181.90625 215.871094 180.132812 210.796875 178.03125 C 206.980469 176.457031 202.550781 174.367188 198.40625 174.089844 C 195.480469 173.886719 192.945312 174.597656 190.449219 176.113281 L 189.078125 176.964844 Z M 189.078125 180.703125 " fill-opacity="1" fill-rule="evenodd"/></g><g fill="#5e17eb" fill-opacity="1"><g transform="translate(101.558596, 228.246899)"><g><path d="M 2.875 -25.203125 L 7.921875 -25.203125 L 7.921875 -4.5 L 18.90625 -4.5 L 18.90625 0 L 2.875 0 Z M 2.875 -25.203125 "/></g></g></g><g fill="#5e17eb" fill-opacity="1"><g transform="translate(120.278632, 228.246899)"><g><path d="M 10.90625 0.546875 C 9.488281 0.546875 8.207031 0.320312 7.0625 -0.125 C 5.925781 -0.570312 4.957031 -1.21875 4.15625 -2.0625 C 3.351562 -2.914062 2.726562 -3.960938 2.28125 -5.203125 C 1.84375 -6.441406 1.625 -7.851562 1.625 -9.4375 C 1.625 -11.019531 1.84375 -12.425781 2.28125 -13.65625 C 2.726562 -14.894531 3.359375 -15.941406 4.171875 -16.796875 C 4.992188 -17.648438 5.976562 -18.300781 7.125 -18.75 C 8.28125 -19.207031 9.566406 -19.4375 10.984375 -19.4375 C 12.234375 -19.4375 13.363281 -19.25 14.375 -18.875 C 15.394531 -18.507812 16.253906 -17.992188 16.953125 -17.328125 C 17.648438 -16.671875 18.191406 -15.890625 18.578125 -14.984375 C 18.960938 -14.085938 19.15625 -13.113281 19.15625 -12.0625 C 19.15625 -11.4375 19.097656 -10.867188 18.984375 -10.359375 C 18.878906 -9.859375 18.765625 -9.40625 18.640625 -9 C 18.503906 -8.539062 18.351562 -8.117188 18.1875 -7.734375 L 6.90625 -7.734375 C 7.050781 -6.492188 7.515625 -5.5 8.296875 -4.75 C 9.078125 -4.007812 10.148438 -3.640625 11.515625 -3.640625 C 12.335938 -3.640625 13.054688 -3.757812 13.671875 -4 C 14.296875 -4.238281 14.828125 -4.5 15.265625 -4.78125 C 15.765625 -5.125 16.195312 -5.519531 16.5625 -5.96875 L 18.796875 -2.734375 C 18.265625 -2.109375 17.613281 -1.554688 16.84375 -1.078125 C 16.195312 -0.671875 15.378906 -0.300781 14.390625 0.03125 C 13.410156 0.375 12.25 0.546875 10.90625 0.546875 Z M 13.578125 -11.34375 C 13.816406 -11.34375 13.992188 -11.460938 14.109375 -11.703125 C 14.234375 -11.941406 14.296875 -12.238281 14.296875 -12.59375 C 14.296875 -13.34375 14.007812 -13.972656 13.4375 -14.484375 C 12.875 -15.003906 12.054688 -15.265625 10.984375 -15.265625 C 9.898438 -15.265625 9 -14.910156 8.28125 -14.203125 C 7.5625 -13.492188 7.101562 -12.539062 6.90625 -11.34375 Z M 13.578125 -11.34375 "/></g></g></g><g fill="#5e17eb" fill-opacity="1"><g transform="translate(140.150675, 228.246899)"><g><path d="M 7.265625 0.546875 C 6.398438 0.546875 5.597656 0.394531 4.859375 0.09375 C 4.117188 -0.207031 3.484375 -0.613281 2.953125 -1.125 C 2.421875 -1.644531 2.003906 -2.253906 1.703125 -2.953125 C 1.410156 -3.648438 1.265625 -4.40625 1.265625 -5.21875 C 1.265625 -6.007812 1.421875 -6.757812 1.734375 -7.46875 C 2.046875 -8.175781 2.503906 -8.789062 3.109375 -9.3125 C 3.722656 -9.84375 4.46875 -10.257812 5.34375 -10.5625 C 6.21875 -10.863281 7.222656 -11.015625 8.359375 -11.015625 L 12.59375 -11.015625 L 12.59375 -11.875 C 12.59375 -12.9375 12.320312 -13.75 11.78125 -14.3125 C 11.25 -14.875 10.5625 -15.15625 9.71875 -15.15625 C 8.8125 -15.15625 8.132812 -14.953125 7.6875 -14.546875 C 7.238281 -14.140625 7.015625 -13.609375 7.015625 -12.953125 C 7.015625 -12.765625 7.019531 -12.625 7.03125 -12.53125 C 7.050781 -12.4375 7.070312 -12.335938 7.09375 -12.234375 L 2.59375 -12.234375 C 2.539062 -12.378906 2.492188 -12.535156 2.453125 -12.703125 C 2.378906 -12.992188 2.34375 -13.34375 2.34375 -13.75 C 2.34375 -14.46875 2.507812 -15.171875 2.84375 -15.859375 C 3.175781 -16.546875 3.660156 -17.144531 4.296875 -17.65625 C 4.929688 -18.175781 5.703125 -18.597656 6.609375 -18.921875 C 7.523438 -19.242188 8.5625 -19.40625 9.71875 -19.40625 C 10.875 -19.40625 11.925781 -19.21875 12.875 -18.84375 C 13.820312 -18.46875 14.632812 -17.953125 15.3125 -17.296875 C 16 -16.640625 16.523438 -15.851562 16.890625 -14.9375 C 17.265625 -14.03125 17.453125 -13.035156 17.453125 -11.953125 L 17.453125 -5.515625 C 17.453125 -4.359375 18.019531 -3.78125 19.15625 -3.78125 L 19.796875 -3.78125 L 19.796875 0 C 19.535156 0.0703125 19.273438 0.144531 19.015625 0.21875 C 18.742188 0.257812 18.453125 0.304688 18.140625 0.359375 C 17.828125 0.410156 17.503906 0.4375 17.171875 0.4375 C 16.253906 0.4375 15.546875 0.273438 15.046875 -0.046875 C 14.546875 -0.378906 14.160156 -0.75 13.890625 -1.15625 C 13.609375 -1.613281 13.414062 -2.148438 13.3125 -2.765625 L 13.03125 -2.765625 C 12.695312 -2.148438 12.265625 -1.597656 11.734375 -1.109375 C 11.273438 -0.703125 10.6875 -0.328125 9.96875 0.015625 C 9.25 0.367188 8.347656 0.546875 7.265625 0.546875 Z M 8.53125 -3.59375 C 9.582031 -3.59375 10.472656 -3.953125 11.203125 -4.671875 C 11.941406 -5.398438 12.40625 -6.28125 12.59375 -7.3125 L 8.71875 -7.3125 C 7.820312 -7.3125 7.164062 -7.117188 6.75 -6.734375 C 6.332031 -6.347656 6.125 -5.914062 6.125 -5.4375 C 6.125 -4.9375 6.320312 -4.503906 6.71875 -4.140625 C 7.113281 -3.773438 7.71875 -3.59375 8.53125 -3.59375 Z M 8.53125 -3.59375 "/></g></g></g><g fill="#5e17eb" fill-opacity="1"><g transform="translate(159.950709, 228.246899)"><g><path d="M 3.234375 -13.28125 C 3.234375 -14.4375 2.671875 -15.015625 1.546875 -15.015625 L 0.90625 -15.015625 L 0.90625 -18.796875 C 1.144531 -18.867188 1.40625 -18.941406 1.6875 -19.015625 C 1.925781 -19.054688 2.207031 -19.109375 2.53125 -19.171875 C 2.863281 -19.234375 3.195312 -19.265625 3.53125 -19.265625 C 4.4375 -19.265625 5.140625 -19.09375 5.640625 -18.75 C 6.148438 -18.414062 6.535156 -18.046875 6.796875 -17.640625 C 7.085938 -17.160156 7.28125 -16.617188 7.375 -16.015625 L 7.671875 -16.015625 C 7.953125 -16.640625 8.359375 -17.207031 8.890625 -17.71875 C 9.347656 -18.144531 9.9375 -18.535156 10.65625 -18.890625 C 11.375 -19.253906 12.296875 -19.4375 13.421875 -19.4375 L 14.9375 -19.4375 L 14.9375 -14.6875 L 12.53125 -14.6875 C 11.207031 -14.6875 10.132812 -14.207031 9.3125 -13.25 C 8.5 -12.289062 8.09375 -10.921875 8.09375 -9.140625 L 8.09375 0 L 3.234375 0 Z M 3.234375 -13.28125 "/></g></g></g><g fill="#5e17eb" fill-opacity="1"><g transform="translate(174.35074, 228.246899)"><g><path d="M 3.234375 -13.390625 C 3.234375 -14.515625 2.671875 -15.078125 1.546875 -15.078125 L 0.90625 -15.078125 L 0.90625 -18.90625 C 1.144531 -18.976562 1.40625 -19.046875 1.6875 -19.109375 C 1.925781 -19.160156 2.207031 -19.207031 2.53125 -19.25 C 2.863281 -19.300781 3.195312 -19.328125 3.53125 -19.328125 C 4.4375 -19.328125 5.140625 -19.160156 5.640625 -18.828125 C 6.148438 -18.492188 6.535156 -18.125 6.796875 -17.71875 C 7.085938 -17.226562 7.28125 -16.6875 7.375 -16.09375 L 7.671875 -16.09375 C 7.953125 -16.71875 8.359375 -17.269531 8.890625 -17.75 C 9.347656 -18.15625 9.9375 -18.535156 10.65625 -18.890625 C 11.375 -19.253906 12.296875 -19.4375 13.421875 -19.4375 C 14.390625 -19.4375 15.273438 -19.273438 16.078125 -18.953125 C 16.878906 -18.628906 17.566406 -18.160156 18.140625 -17.546875 C 18.722656 -16.929688 19.175781 -16.179688 19.5 -15.296875 C 19.820312 -14.410156 19.984375 -13.414062 19.984375 -12.3125 L 19.984375 0 L 15.125 0 L 15.125 -12.0625 C 15.125 -12.96875 14.859375 -13.695312 14.328125 -14.25 C 13.796875 -14.800781 13.078125 -15.078125 12.171875 -15.078125 C 11.015625 -15.078125 10.046875 -14.628906 9.265625 -13.734375 C 8.484375 -12.835938 8.09375 -11.5 8.09375 -9.71875 L 8.09375 0 L 3.234375 0 Z M 3.234375 -13.390625 "/></g></g></g><g fill="#5e17eb" fill-opacity="1"><g transform="translate(196.130791, 228.246899)"><g><path d="M 2.875 -25.203125 L 19.625 -25.203125 L 19.625 -20.703125 L 7.921875 -20.703125 L 7.921875 -14.90625 L 17.5625 -14.90625 L 17.5625 -10.40625 L 7.921875 -10.40625 L 7.921875 -4.5 L 19.625 -4.5 L 19.625 0 L 2.875 0 Z M 2.875 -25.203125 "/></g></g></g><g fill="#5e17eb" fill-opacity="1"><g transform="translate(216.110835, 228.246899)"><g><path d="M 7.265625 0.546875 C 6.398438 0.546875 5.597656 0.394531 4.859375 0.09375 C 4.117188 -0.207031 3.484375 -0.613281 2.953125 -1.125 C 2.421875 -1.644531 2.003906 -2.253906 1.703125 -2.953125 C 1.410156 -3.648438 1.265625 -4.40625 1.265625 -5.21875 C 1.265625 -6.007812 1.421875 -6.757812 1.734375 -7.46875 C 2.046875 -8.175781 2.503906 -8.789062 3.109375 -9.3125 C 3.722656 -9.84375 4.46875 -10.257812 5.34375 -10.5625 C 6.21875 -10.863281 7.222656 -11.015625 8.359375 -11.015625 L 12.59375 -11.015625 L 12.59375 -11.875 C 12.59375 -12.9375 12.320312 -13.75 11.78125 -14.3125 C 11.25 -14.875 10.5625 -15.15625 9.71875 -15.15625 C 8.8125 -15.15625 8.132812 -14.953125 7.6875 -14.546875 C 7.238281 -14.140625 7.015625 -13.609375 7.015625 -12.953125 C 7.015625 -12.765625 7.019531 -12.625 7.03125 -12.53125 C 7.050781 -12.4375 7.070312 -12.335938 7.09375 -12.234375 L 2.59375 -12.234375 C 2.539062 -12.378906 2.492188 -12.535156 2.453125 -12.703125 C 2.378906 -12.992188 2.34375 -13.34375 2.34375 -13.75 C 2.34375 -14.46875 2.507812 -15.171875 2.84375 -15.859375 C 3.175781 -16.546875 3.660156 -17.144531 4.296875 -17.65625 C 4.929688 -18.175781 5.703125 -18.597656 6.609375 -18.921875 C 7.523438 -19.242188 8.5625 -19.40625 9.71875 -19.40625 C 10.875 -19.40625 11.925781 -19.21875 12.875 -18.84375 C 13.820312 -18.46875 14.632812 -17.953125 15.3125 -17.296875 C 16 -16.640625 16.523438 -15.851562 16.890625 -14.9375 C 17.265625 -14.03125 17.453125 -13.035156 17.453125 -11.953125 L 17.453125 -5.515625 C 17.453125 -4.359375 18.019531 -3.78125 19.15625 -3.78125 L 19.796875 -3.78125 L 19.796875 0 C 19.535156 0.0703125 19.273438 0.144531 19.015625 0.21875 C 18.742188 0.257812 18.453125 0.304688 18.140625 0.359375 C 17.828125 0.410156 17.503906 0.4375 17.171875 0.4375 C 16.253906 0.4375 15.546875 0.273438 15.046875 -0.046875 C 14.546875 -0.378906 14.160156 -0.75 13.890625 -1.15625 C 13.609375 -1.613281 13.414062 -2.148438 13.3125 -2.765625 L 13.03125 -2.765625 C 12.695312 -2.148438 12.265625 -1.597656 11.734375 -1.109375 C 11.273438 -0.703125 10.6875 -0.328125 9.96875 0.015625 C 9.25 0.367188 8.347656 0.546875 7.265625 0.546875 Z M 8.53125 -3.59375 C 9.582031 -3.59375 10.472656 -3.953125 11.203125 -4.671875 C 11.941406 -5.398438 12.40625 -6.28125 12.59375 -7.3125 L 8.71875 -7.3125 C 7.820312 -7.3125 7.164062 -7.117188 6.75 -6.734375 C 6.332031 -6.347656 6.125 -5.914062 6.125 -5.4375 C 6.125 -4.9375 6.320312 -4.503906 6.71875 -4.140625 C 7.113281 -3.773438 7.71875 -3.59375 8.53125 -3.59375 Z M 8.53125 -3.59375 "/></g></g></g><g fill="#5e17eb" fill-opacity="1"><g transform="translate(235.910875, 228.246899)"><g><path d="M 8.71875 0.546875 C 7.300781 0.546875 6.082031 0.367188 5.0625 0.015625 C 4.039062 -0.328125 3.191406 -0.71875 2.515625 -1.15625 C 1.722656 -1.65625 1.066406 -2.226562 0.546875 -2.875 L 2.953125 -5.96875 C 3.335938 -5.539062 3.78125 -5.160156 4.28125 -4.828125 C 4.71875 -4.535156 5.253906 -4.273438 5.890625 -4.046875 C 6.523438 -3.816406 7.257812 -3.703125 8.09375 -3.703125 C 9.125 -3.703125 9.863281 -3.878906 10.3125 -4.234375 C 10.757812 -4.597656 10.984375 -5.035156 10.984375 -5.546875 C 10.984375 -6.003906 10.742188 -6.359375 10.265625 -6.609375 C 9.785156 -6.859375 9.179688 -7.085938 8.453125 -7.296875 C 7.734375 -7.515625 6.953125 -7.75 6.109375 -8 C 5.273438 -8.257812 4.5 -8.601562 3.78125 -9.03125 C 3.0625 -9.46875 2.460938 -10.039062 1.984375 -10.75 C 1.503906 -11.457031 1.265625 -12.375 1.265625 -13.5 C 1.265625 -14.289062 1.429688 -15.039062 1.765625 -15.75 C 2.097656 -16.457031 2.585938 -17.082031 3.234375 -17.625 C 3.890625 -18.164062 4.679688 -18.597656 5.609375 -18.921875 C 6.546875 -19.242188 7.613281 -19.40625 8.8125 -19.40625 C 9.988281 -19.40625 11.039062 -19.253906 11.96875 -18.953125 C 12.894531 -18.648438 13.671875 -18.238281 14.296875 -17.71875 C 14.921875 -17.207031 15.394531 -16.613281 15.71875 -15.9375 C 16.039062 -15.269531 16.203125 -14.566406 16.203125 -13.828125 C 16.203125 -13.628906 16.1875 -13.441406 16.15625 -13.265625 C 16.132812 -13.085938 16.101562 -12.9375 16.0625 -12.8125 C 16.007812 -12.664062 15.957031 -12.523438 15.90625 -12.390625 L 11.234375 -12.390625 C 11.234375 -12.429688 11.242188 -12.5 11.265625 -12.59375 C 11.316406 -12.789062 11.34375 -12.972656 11.34375 -13.140625 C 11.34375 -13.691406 11.125 -14.164062 10.6875 -14.5625 C 10.257812 -14.957031 9.632812 -15.15625 8.8125 -15.15625 C 8.070312 -15.15625 7.5 -14.972656 7.09375 -14.609375 C 6.6875 -14.253906 6.484375 -13.847656 6.484375 -13.390625 C 6.484375 -12.929688 6.722656 -12.578125 7.203125 -12.328125 C 7.679688 -12.078125 8.28125 -11.84375 9 -11.625 C 9.71875 -11.40625 10.492188 -11.175781 11.328125 -10.9375 C 12.171875 -10.695312 12.953125 -10.359375 13.671875 -9.921875 C 14.398438 -9.492188 15.003906 -8.925781 15.484375 -8.21875 C 15.960938 -7.507812 16.203125 -6.59375 16.203125 -5.46875 C 16.203125 -4.632812 16.03125 -3.851562 15.6875 -3.125 C 15.351562 -2.40625 14.867188 -1.769531 14.234375 -1.21875 C 13.597656 -0.664062 12.816406 -0.234375 11.890625 0.078125 C 10.972656 0.390625 9.914062 0.546875 8.71875 0.546875 Z M 8.71875 0.546875 "/></g></g></g><g fill="#5e17eb" fill-opacity="1"><g transform="translate(252.650913, 228.246899)"><g><path d="M 10.90625 0.546875 C 9.488281 0.546875 8.207031 0.320312 7.0625 -0.125 C 5.925781 -0.570312 4.957031 -1.21875 4.15625 -2.0625 C 3.351562 -2.914062 2.726562 -3.960938 2.28125 -5.203125 C 1.84375 -6.441406 1.625 -7.851562 1.625 -9.4375 C 1.625 -11.019531 1.84375 -12.425781 2.28125 -13.65625 C 2.726562 -14.894531 3.359375 -15.941406 4.171875 -16.796875 C 4.992188 -17.648438 5.976562 -18.300781 7.125 -18.75 C 8.28125 -19.207031 9.566406 -19.4375 10.984375 -19.4375 C 12.234375 -19.4375 13.363281 -19.25 14.375 -18.875 C 15.394531 -18.507812 16.253906 -17.992188 16.953125 -17.328125 C 17.648438 -16.671875 18.191406 -15.890625 18.578125 -14.984375 C 18.960938 -14.085938 19.15625 -13.113281 19.15625 -12.0625 C 19.15625 -11.4375 19.097656 -10.867188 18.984375 -10.359375 C 18.878906 -9.859375 18.765625 -9.40625 18.640625 -9 C 18.503906 -8.539062 18.351562 -8.117188 18.1875 -7.734375 L 6.90625 -7.734375 C 7.050781 -6.492188 7.515625 -5.5 8.296875 -4.75 C 9.078125 -4.007812 10.148438 -3.640625 11.515625 -3.640625 C 12.335938 -3.640625 13.054688 -3.757812 13.671875 -4 C 14.296875 -4.238281 14.828125 -4.5 15.265625 -4.78125 C 15.765625 -5.125 16.195312 -5.519531 16.5625 -5.96875 L 18.796875 -2.734375 C 18.265625 -2.109375 17.613281 -1.554688 16.84375 -1.078125 C 16.195312 -0.671875 15.378906 -0.300781 14.390625 0.03125 C 13.410156 0.375 12.25 0.546875 10.90625 0.546875 Z M 13.578125 -11.34375 C 13.816406 -11.34375 13.992188 -11.460938 14.109375 -11.703125 C 14.234375 -11.941406 14.296875 -12.238281 14.296875 -12.59375 C 14.296875 -13.34375 14.007812 -13.972656 13.4375 -14.484375 C 12.875 -15.003906 12.054688 -15.265625 10.984375 -15.265625 C 9.898438 -15.265625 9 -14.910156 8.28125 -14.203125 C 7.5625 -13.492188 7.101562 -12.539062 6.90625 -11.34375 Z M 13.578125 -11.34375 "/></g></g></g></svg>