<svg xmlns="http://www.w3.org/2000/svg" xmlns:xlink="http://www.w3.org/1999/xlink" width="500" zoomAndPan="magnify" viewBox="0 0 375 374.999991" height="500" preserveAspectRatio="xMidYMid meet" version="1.0"><defs><g/><clipPath id="51cdcc96a6"><path d="M 124.039062 98 L 250.789062 98 L 250.789062 162 L 124.039062 162 Z M 124.039062 98 " clip-rule="nonzero"/></clipPath><clipPath id="08bba1846d"><path d="M 124.039062 157 L 250.789062 157 L 250.789062 198 L 124.039062 198 Z M 124.039062 157 " clip-rule="nonzero"/></clipPath><clipPath id="6cad48bf04"><path d="M 124.039062 193 L 250.789062 193 L 250.789062 232.859375 L 124.039062 232.859375 Z M 124.039062 193 " clip-rule="nonzero"/></clipPath></defs><rect x="-37.5" width="450" fill="#ffffff" y="-37.499999" height="449.999989" fill-opacity="1"/><rect x="-37.5" width="450" fill="#ffffff" y="-37.499999" height="449.999989" fill-opacity="1"/><g clip-path="url(#51cdcc96a6)"><path fill="#0795ff" d="M 125.390625 132.273438 L 186.140625 161.496094 C 186.894531 161.855469 187.648438 161.855469 188.398438 161.496094 L 249.148438 132.273438 C 249.59375 132.054688 249.945312 131.734375 250.207031 131.316406 C 250.46875 130.898438 250.597656 130.441406 250.597656 129.945312 C 250.597656 129.453125 250.46875 128.996094 250.207031 128.574219 C 249.945312 128.15625 249.59375 127.835938 249.148438 127.617188 L 188.398438 98.394531 C 187.648438 98.039062 186.894531 98.039062 186.140625 98.394531 L 125.390625 127.617188 C 124.949219 127.835938 124.597656 128.15625 124.335938 128.574219 C 124.074219 128.996094 123.945312 129.453125 123.945312 129.945312 C 123.945312 130.441406 124.074219 130.898438 124.335938 131.316406 C 124.597656 131.734375 124.949219 132.054688 125.390625 132.273438 Z M 125.390625 132.273438 " fill-opacity="1" fill-rule="nonzero"/></g><g clip-path="url(#08bba1846d)"><path fill="#156cdd" d="M 125.390625 167.757812 L 186.140625 196.925781 C 186.894531 197.28125 187.648438 197.28125 188.398438 196.925781 L 249.148438 167.757812 C 249.59375 167.542969 249.949219 167.226562 250.210938 166.8125 C 250.472656 166.394531 250.605469 165.9375 250.605469 165.445312 C 250.605469 164.953125 250.472656 164.496094 250.210938 164.078125 C 249.949219 163.660156 249.59375 163.34375 249.148438 163.132812 L 239.496094 158.449219 C 238.5 157.957031 237.445312 157.707031 236.332031 157.707031 C 235.222656 157.707031 234.167969 157.957031 233.171875 158.449219 L 195.738281 176.5 C 194.433594 177.125 193.078125 177.59375 191.667969 177.914062 C 190.257812 178.234375 188.828125 178.394531 187.382812 178.394531 C 185.9375 178.394531 184.511719 178.234375 183.101562 177.914062 C 181.691406 177.59375 180.332031 177.125 179.027344 176.5 L 141.398438 158.421875 C 140.394531 157.941406 139.335938 157.703125 138.222656 157.703125 C 137.109375 157.703125 136.050781 157.941406 135.046875 158.421875 L 125.390625 163.074219 C 124.949219 163.289062 124.59375 163.605469 124.332031 164.023438 C 124.070312 164.441406 123.9375 164.894531 123.9375 165.386719 C 123.9375 165.882812 124.070312 166.335938 124.332031 166.753906 C 124.59375 167.171875 124.949219 167.488281 125.390625 167.703125 Z M 125.390625 167.757812 " fill-opacity="1" fill-rule="nonzero"/></g><g clip-path="url(#6cad48bf04)"><path fill="#156cdd" d="M 249.148438 198.53125 L 239.496094 193.878906 C 238.496094 193.398438 237.441406 193.160156 236.332031 193.160156 C 235.226562 193.160156 234.171875 193.398438 233.171875 193.878906 L 195.738281 211.929688 C 194.4375 212.5625 193.082031 213.039062 191.671875 213.363281 C 190.261719 213.6875 188.832031 213.847656 187.382812 213.847656 C 185.9375 213.847656 184.507812 213.6875 183.097656 213.363281 C 181.6875 213.039062 180.332031 212.5625 179.027344 211.929688 L 141.511719 193.878906 C 140.507812 193.398438 139.449219 193.160156 138.335938 193.160156 C 137.222656 193.160156 136.164062 193.398438 135.160156 193.878906 L 125.503906 198.53125 C 125.058594 198.746094 124.707031 199.0625 124.445312 199.480469 C 124.179688 199.894531 124.050781 200.351562 124.050781 200.84375 C 124.050781 201.335938 124.179688 201.792969 124.445312 202.210938 C 124.707031 202.628906 125.058594 202.945312 125.503906 203.15625 L 186.140625 232.378906 C 186.894531 232.738281 187.648438 232.738281 188.398438 232.378906 L 249.148438 203.15625 C 249.59375 202.945312 249.949219 202.628906 250.210938 202.210938 C 250.472656 201.792969 250.605469 201.335938 250.605469 200.84375 C 250.605469 200.351562 250.472656 199.894531 250.210938 199.480469 C 249.949219 199.0625 249.59375 198.746094 249.148438 198.53125 Z M 249.148438 198.53125 " fill-opacity="1" fill-rule="nonzero"/></g><g fill="#203f6b" fill-opacity="1"><g transform="translate(111.720167, 267.913929)"><g><path d="M 1.851562 0 L 14.046875 0 L 14.046875 -4.675781 L 6.898438 -4.675781 L 6.898438 -17.5 L 1.851562 -17.5 Z M 1.851562 0 "/></g></g></g><g fill="#203f6b" fill-opacity="1"><g transform="translate(126.392842, 267.913929)"><g><path d="M 1.851562 0 L 14.125 0 L 14.125 -4.125 L 6.847656 -4.125 L 6.847656 -6.824219 L 13.171875 -6.824219 L 13.171875 -10.875 L 6.847656 -10.875 L 6.847656 -13.421875 L 13.847656 -13.421875 L 13.847656 -17.5 L 1.851562 -17.5 Z M 1.851562 0 "/></g></g></g><g fill="#203f6b" fill-opacity="1"><g transform="translate(141.640423, 267.913929)"><g><path d="M 0.125 0 L 5.472656 0 L 6.425781 -2.476562 L 12.398438 -2.476562 L 13.347656 0 L 18.722656 0 L 11.921875 -17.5 L 6.925781 -17.5 Z M 7.472656 -6.175781 L 9.425781 -11.597656 L 11.375 -6.175781 Z M 7.472656 -6.175781 "/></g></g></g><g fill="#203f6b" fill-opacity="1"><g transform="translate(160.487434, 267.913929)"><g><path d="M 1.851562 0 L 6.898438 0 L 6.898438 -4.972656 L 8.800781 -4.972656 L 11.300781 0 L 17.023438 0 L 13.796875 -5.898438 C 15.648438 -6.925781 16.699219 -8.773438 16.699219 -11.222656 C 16.699219 -15.097656 14.074219 -17.5 9.824219 -17.5 L 1.851562 -17.5 Z M 6.800781 -9 L 6.800781 -13.375 L 9.148438 -13.375 C 10.75 -13.375 11.625 -12.597656 11.625 -11.199219 C 11.625 -9.800781 10.75 -9 9.148438 -9 Z M 6.800781 -9 "/></g></g></g><g fill="#203f6b" fill-opacity="1"><g transform="translate(178.484583, 267.913929)"><g><path d="M 1.851562 0 L 6.847656 0 L 6.847656 -8.925781 L 13.5 0 L 17.597656 0 L 17.597656 -17.5 L 12.625 -17.5 L 12.625 -8.625 L 5.972656 -17.5 L 1.851562 -17.5 Z M 1.851562 0 "/></g></g></g><g fill="#203f6b" fill-opacity="1"><g transform="translate(197.956498, 267.913929)"><g><path d="M 1.851562 0 L 14.125 0 L 14.125 -4.125 L 6.847656 -4.125 L 6.847656 -6.824219 L 13.171875 -6.824219 L 13.171875 -10.875 L 6.847656 -10.875 L 6.847656 -13.421875 L 13.847656 -13.421875 L 13.847656 -17.5 L 1.851562 -17.5 Z M 1.851562 0 "/></g></g></g><g fill="#203f6b" fill-opacity="1"><g transform="translate(213.204079, 267.913929)"><g><path d="M 0.125 0 L 5.472656 0 L 6.425781 -2.476562 L 12.398438 -2.476562 L 13.347656 0 L 18.722656 0 L 11.921875 -17.5 L 6.925781 -17.5 Z M 7.472656 -6.175781 L 9.425781 -11.597656 L 11.375 -6.175781 Z M 7.472656 -6.175781 "/></g></g></g><g fill="#203f6b" fill-opacity="1"><g transform="translate(232.05109, 267.913929)"><g><path d="M 8.125 0.375 C 12.472656 0.375 15.046875 -1.675781 15.046875 -5.125 C 15.046875 -8.023438 13.171875 -9.722656 8.925781 -10.675781 C 6.675781 -11.175781 5.847656 -11.722656 5.847656 -12.625 C 5.847656 -13.472656 6.597656 -14 7.773438 -14 C 9.175781 -14 9.972656 -13.273438 9.972656 -11.949219 L 14.722656 -11.949219 C 14.722656 -15.546875 11.972656 -17.875 7.675781 -17.875 C 3.550781 -17.875 1 -15.824219 1 -12.523438 C 1 -9.574219 2.925781 -7.75 6.875 -7 C 9 -6.574219 10.023438 -5.925781 10.023438 -4.925781 C 10.023438 -4.050781 9.273438 -3.550781 8.050781 -3.550781 C 6.597656 -3.550781 5.75 -4.324219 5.75 -5.675781 L 0.875 -5.675781 C 0.875 -1.898438 3.574219 0.375 8.125 0.375 Z M 8.125 0.375 "/></g></g></g><g fill="#203f6b" fill-opacity="1"><g transform="translate(248.023562, 267.913929)"><g><path d="M 1.851562 0 L 14.125 0 L 14.125 -4.125 L 6.847656 -4.125 L 6.847656 -6.824219 L 13.171875 -6.824219 L 13.171875 -10.875 L 6.847656 -10.875 L 6.847656 -13.421875 L 13.847656 -13.421875 L 13.847656 -17.5 L 1.851562 -17.5 Z M 1.851562 0 "/></g></g></g></svg>