<svg xmlns="http://www.w3.org/2000/svg" xmlns:xlink="http://www.w3.org/1999/xlink" width="500" zoomAndPan="magnify" viewBox="0 0 375 374.999991" height="500" preserveAspectRatio="xMidYMid meet" version="1.0"><defs><g/><clipPath id="6f0f9ca9e9"><path d="M 132.488281 120.058594 L 242.738281 120.058594 L 242.738281 209.226562 L 132.488281 209.226562 Z M 132.488281 120.058594 " clip-rule="nonzero"/></clipPath></defs><rect x="-37.5" width="450" fill="#ffffff" y="-37.499999" height="449.999989" fill-opacity="1"/><rect x="-37.5" width="450" fill="#000b26" y="-37.499999" height="449.999989" fill-opacity="1"/><g clip-path="url(#6f0f9ca9e9)"><path fill="#ffffff" d="M 148.273438 136.785156 L 167.300781 143.1875 C 168.867188 143.871094 176.304688 146.589844 189.5 143.320312 C 206.164062 139.191406 242.238281 132.03125 242.605469 131.949219 L 241.253906 125.167969 C 241.242188 125.167969 241.148438 125.195312 241.015625 125.222656 L 206.636719 120.371094 C 202.851562 119.847656 196.753906 119.992188 192.996094 120.726562 L 147.023438 129.636719 C 141.042969 129.335938 135.367188 133 133.460938 138.96875 C 132.359375 142.398438 132.660156 146.066406 134.316406 149.257812 C 135.171875 150.902344 136.3125 152.308594 137.691406 153.464844 C 135.617188 155.082031 134 157.300781 133.132812 159.984375 C 132.042969 163.414062 132.34375 167.078125 134 170.285156 C 134.894531 172.019531 136.140625 173.480469 137.628906 174.648438 C 135.589844 176.253906 133.988281 178.472656 133.132812 181.117188 C 132.042969 184.558594 132.34375 188.210938 134 191.417969 C 135.65625 194.625 138.457031 196.992188 141.886719 198.09375 L 175.03125 208.6875 C 176.84375 209.265625 179.828125 209.398438 181.691406 208.964844 L 239.875 195.636719 C 239.875 195.636719 239.519531 194.140625 239.097656 192.273438 C 238.675781 190.421875 236.8125 189.25 234.957031 189.671875 L 181.996094 201.800781 C 180.128906 202.234375 177.144531 202.101562 175.332031 201.523438 L 143.988281 191.511719 C 142.320312 190.972656 140.953125 189.816406 140.136719 188.25 C 139.335938 186.6875 139.179688 184.898438 139.71875 183.230469 C 140.835938 179.761719 144.539062 177.871094 148.011719 178.960938 C 148.023438 178.921875 167.183594 185.042969 175.03125 187.542969 C 176.84375 188.121094 179.828125 188.25 181.691406 187.832031 L 239.875 174.503906 C 239.875 174.503906 239.519531 172.992188 239.097656 171.128906 C 238.675781 169.273438 236.824219 168.105469 234.957031 168.539062 L 181.996094 180.667969 C 180.128906 181.089844 177.144531 180.957031 175.332031 180.378906 L 143.988281 170.363281 C 142.320312 169.828125 140.953125 168.667969 140.136719 167.105469 C 139.335938 165.542969 139.179688 163.753906 139.71875 162.085938 C 140.835938 158.617188 144.539062 156.722656 148.011719 157.8125 C 148.011719 157.800781 167.433594 164.003906 175.34375 166.527344 C 177.171875 167.117188 180.15625 167.238281 182.007812 166.816406 L 240.1875 153.492188 C 240.1875 153.492188 239.847656 151.980469 239.414062 150.113281 C 238.992188 148.261719 237.140625 147.089844 235.273438 147.523438 L 182.3125 159.640625 C 180.445312 160.074219 177.472656 159.941406 175.648438 159.363281 L 144.316406 149.351562 C 142.632812 148.8125 141.269531 147.65625 140.464844 146.089844 C 139.652344 144.527344 139.507812 142.742188 140.046875 141.070312 C 141.148438 137.613281 144.855469 135.683594 148.273438 136.785156 Z M 148.273438 136.785156 " fill-opacity="1" fill-rule="nonzero"/></g><g fill="#ffffff" fill-opacity="1"><g transform="translate(82.842179, 250.081565)"><g><path d="M 6.9375 -4.171875 L 15.265625 -4.171875 L 15.265625 0 L 1.953125 0 L 1.953125 -19.59375 L 6.9375 -19.59375 Z M 6.9375 -4.171875 "/></g></g></g><g fill="#ffffff" fill-opacity="1"><g transform="translate(102.72003, 250.081565)"><g><path d="M 17.296875 -15.6875 L 6.9375 -15.6875 L 6.9375 -11.78125 L 16.296875 -11.78125 L 16.296875 -7.875 L 6.9375 -7.875 L 6.9375 -3.921875 L 17.609375 -3.921875 L 17.609375 0 L 1.953125 0 L 1.953125 -19.59375 L 17.296875 -19.59375 Z M 17.296875 -15.6875 "/></g></g></g><g fill="#ffffff" fill-opacity="1"><g transform="translate(125.789444, 250.081565)"><g><path d="M 14.984375 -3.609375 L 6.40625 -3.609375 L 4.984375 0 L -0.140625 0 L 8.3125 -19.59375 L 13.4375 -19.59375 L 21.703125 0 L 16.375 0 Z M 13.53125 -7.390625 L 10.71875 -14.640625 L 7.875 -7.390625 Z M 13.53125 -7.390625 "/></g></g></g><g fill="#ffffff" fill-opacity="1"><g transform="translate(151.546493, 250.081565)"><g><path d="M 13.78125 0 L 10.859375 -5.515625 L 6.9375 -5.515625 L 6.9375 0 L 1.953125 0 L 1.953125 -19.59375 L 10.71875 -19.59375 C 13.3125 -19.59375 15.316406 -19 16.734375 -17.8125 C 18.160156 -16.632812 18.875 -14.953125 18.875 -12.765625 C 18.875 -9.742188 17.6875 -7.644531 15.3125 -6.46875 L 19.4375 0 Z M 6.9375 -9.4375 L 10.71875 -9.4375 C 11.800781 -9.4375 12.640625 -9.707031 13.234375 -10.25 C 13.835938 -10.789062 14.140625 -11.570312 14.140625 -12.59375 C 14.140625 -13.601562 13.835938 -14.367188 13.234375 -14.890625 C 12.640625 -15.421875 11.800781 -15.6875 10.71875 -15.6875 L 6.9375 -15.6875 Z M 6.9375 -9.4375 "/></g></g></g><g fill="#ffffff" fill-opacity="1"><g transform="translate(176.015711, 250.081565)"><g><path d="M 20.046875 0 L 15.65625 0 L 6.640625 -12.0625 L 6.640625 0 L 1.953125 0 L 1.953125 -19.59375 L 6.359375 -19.59375 L 15.40625 -7.5 L 15.40625 -19.59375 L 20.046875 -19.59375 Z M 20.046875 0 "/></g></g></g><g fill="#ffffff" fill-opacity="1"><g transform="translate(202.220688, 250.081565)"><g><path d="M 17.296875 -15.6875 L 6.9375 -15.6875 L 6.9375 -11.78125 L 16.296875 -11.78125 L 16.296875 -7.875 L 6.9375 -7.875 L 6.9375 -3.921875 L 17.609375 -3.921875 L 17.609375 0 L 1.953125 0 L 1.953125 -19.59375 L 17.296875 -19.59375 Z M 17.296875 -15.6875 "/></g></g></g><g fill="#ffffff" fill-opacity="1"><g transform="translate(225.290099, 250.081565)"><g><path d="M 14.984375 -3.609375 L 6.40625 -3.609375 L 4.984375 0 L -0.140625 0 L 8.3125 -19.59375 L 13.4375 -19.59375 L 21.703125 0 L 16.375 0 Z M 13.53125 -7.390625 L 10.71875 -14.640625 L 7.875 -7.390625 Z M 13.53125 -7.390625 "/></g></g></g><g fill="#ffffff" fill-opacity="1"><g transform="translate(251.047143, 250.081565)"><g><path d="M 9.484375 -19.828125 C 12.421875 -19.828125 15 -19.097656 17.21875 -17.640625 L 15.34375 -13.75 C 14.3125 -14.34375 13.207031 -14.832031 12.03125 -15.21875 C 10.863281 -15.601562 9.878906 -15.796875 9.078125 -15.796875 C 7.640625 -15.796875 6.921875 -15.316406 6.921875 -14.359375 C 6.921875 -13.742188 7.273438 -13.25 7.984375 -12.875 C 8.691406 -12.5 9.550781 -12.175781 10.5625 -11.90625 C 11.582031 -11.644531 12.597656 -11.320312 13.609375 -10.9375 C 14.628906 -10.550781 15.492188 -9.925781 16.203125 -9.0625 C 16.921875 -8.207031 17.28125 -7.128906 17.28125 -5.828125 C 17.28125 -3.941406 16.539062 -2.46875 15.0625 -1.40625 C 13.59375 -0.351562 11.71875 0.171875 9.4375 0.171875 C 7.8125 0.171875 6.203125 -0.109375 4.609375 -0.671875 C 3.023438 -1.234375 1.644531 -2 0.46875 -2.96875 L 2.40625 -6.796875 C 3.394531 -5.941406 4.5625 -5.238281 5.90625 -4.6875 C 7.25 -4.132812 8.441406 -3.859375 9.484375 -3.859375 C 10.296875 -3.859375 10.925781 -4.003906 11.375 -4.296875 C 11.820312 -4.585938 12.046875 -5.015625 12.046875 -5.578125 C 12.046875 -6.117188 11.785156 -6.566406 11.265625 -6.921875 C 10.753906 -7.285156 10.113281 -7.554688 9.34375 -7.734375 C 8.582031 -7.921875 7.753906 -8.160156 6.859375 -8.453125 C 5.960938 -8.753906 5.128906 -9.082031 4.359375 -9.4375 C 3.597656 -9.789062 2.960938 -10.351562 2.453125 -11.125 C 1.941406 -11.90625 1.6875 -12.835938 1.6875 -13.921875 C 1.6875 -15.710938 2.398438 -17.144531 3.828125 -18.21875 C 5.253906 -19.289062 7.140625 -19.828125 9.484375 -19.828125 Z M 9.484375 -19.828125 "/></g></g></g><g fill="#ffffff" fill-opacity="1"><g transform="translate(273.276661, 250.081565)"><g><path d="M 17.296875 -15.6875 L 6.9375 -15.6875 L 6.9375 -11.78125 L 16.296875 -11.78125 L 16.296875 -7.875 L 6.9375 -7.875 L 6.9375 -3.921875 L 17.609375 -3.921875 L 17.609375 0 L 1.953125 0 L 1.953125 -19.59375 L 17.296875 -19.59375 Z M 17.296875 -15.6875 "/></g></g></g><g fill="#ffffff" fill-opacity="1"><g transform="translate(127.597635, 269.881593)"><g><path d="M 8.28125 -8.3125 L 2.9375 -8.3125 L 2.9375 -5.671875 L 7.734375 -5.671875 L 7.734375 -4.1875 L 2.9375 -4.1875 L 2.9375 -1.484375 L 8.453125 -1.484375 L 8.453125 0 L 1.28125 0 L 1.28125 -9.796875 L 8.28125 -9.796875 Z M 8.28125 -8.3125 "/></g></g></g><g fill="#ffffff" fill-opacity="1"><g transform="translate(140.276486, 269.881593)"><g><path d="M 4.296875 -3.703125 L 0.859375 -3.703125 L 0.859375 -4.8125 L 4.296875 -4.8125 Z M 4.296875 -3.703125 "/></g></g></g><g fill="#ffffff" fill-opacity="1"><g transform="translate(148.925587, 269.881593)"><g><path d="M 2.9375 -1.5 L 7.1875 -1.5 L 7.1875 0 L 1.28125 0 L 1.28125 -9.796875 L 2.9375 -9.796875 Z M 2.9375 -1.5 "/></g></g></g><g fill="#ffffff" fill-opacity="1"><g transform="translate(159.89738, 269.881593)"><g><path d="M 8.28125 -8.3125 L 2.9375 -8.3125 L 2.9375 -5.671875 L 7.734375 -5.671875 L 7.734375 -4.1875 L 2.9375 -4.1875 L 2.9375 -1.484375 L 8.453125 -1.484375 L 8.453125 0 L 1.28125 0 L 1.28125 -9.796875 L 8.28125 -9.796875 Z M 8.28125 -8.3125 "/></g></g></g><g fill="#ffffff" fill-opacity="1"><g transform="translate(172.576232, 269.881593)"><g><path d="M 7.609375 -2.21875 L 2.671875 -2.21875 L 1.734375 0 L 0.015625 0 L 4.34375 -9.796875 L 6.03125 -9.796875 L 10.3125 0 L 8.546875 0 Z M 6.984375 -3.6875 L 5.140625 -8.03125 L 3.296875 -3.6875 Z M 6.984375 -3.6875 "/></g></g></g><g fill="#ffffff" fill-opacity="1"><g transform="translate(186.402433, 269.881593)"><g><path d="M 7.5 0 L 5.71875 -2.96875 C 5.625 -2.957031 5.472656 -2.953125 5.265625 -2.953125 L 2.9375 -2.953125 L 2.9375 0 L 1.28125 0 L 1.28125 -9.796875 L 5.265625 -9.796875 C 6.515625 -9.796875 7.484375 -9.503906 8.171875 -8.921875 C 8.867188 -8.335938 9.21875 -7.515625 9.21875 -6.453125 C 9.21875 -5.671875 9.039062 -5.007812 8.6875 -4.46875 C 8.332031 -3.925781 7.832031 -3.53125 7.1875 -3.28125 L 9.375 0 Z M 2.9375 -4.4375 L 5.265625 -4.4375 C 6.847656 -4.4375 7.640625 -5.09375 7.640625 -6.40625 C 7.640625 -7.675781 6.847656 -8.3125 5.265625 -8.3125 L 2.9375 -8.3125 Z M 2.9375 -4.4375 "/></g></g></g><g fill="#ffffff" fill-opacity="1"><g transform="translate(200.01875, 269.881593)"><g><path d="M 9.78125 0 L 8.15625 0 L 2.9375 -7.03125 L 2.9375 0 L 1.28125 0 L 1.28125 -9.796875 L 2.90625 -9.796875 L 8.15625 -2.765625 L 8.15625 -9.796875 L 9.78125 -9.796875 Z M 9.78125 0 "/></g></g></g><g fill="#ffffff" fill-opacity="1"><g transform="translate(214.600536, 269.881593)"><g><path d="M 2.9375 0 L 1.28125 0 L 1.28125 -9.796875 L 2.9375 -9.796875 Z M 2.9375 0 "/></g></g></g><g fill="#ffffff" fill-opacity="1"><g transform="translate(222.326145, 269.881593)"><g><path d="M 9.78125 0 L 8.15625 0 L 2.9375 -7.03125 L 2.9375 0 L 1.28125 0 L 1.28125 -9.796875 L 2.90625 -9.796875 L 8.15625 -2.765625 L 8.15625 -9.796875 L 9.78125 -9.796875 Z M 9.78125 0 "/></g></g></g><g fill="#ffffff" fill-opacity="1"><g transform="translate(236.907931, 269.881593)"><g><path d="M 8 -4.8125 L 9.4375 -4.8125 L 9.4375 -1.203125 C 8.9375 -0.816406 8.34375 -0.507812 7.65625 -0.28125 C 6.96875 -0.0507812 6.289062 0.0625 5.625 0.0625 C 4.175781 0.0625 2.953125 -0.410156 1.953125 -1.359375 C 0.960938 -2.316406 0.46875 -3.492188 0.46875 -4.890625 C 0.46875 -6.296875 0.972656 -7.472656 1.984375 -8.421875 C 2.992188 -9.367188 4.238281 -9.84375 5.71875 -9.84375 C 6.414062 -9.84375 7.097656 -9.71875 7.765625 -9.46875 C 8.429688 -9.21875 9.003906 -8.882812 9.484375 -8.46875 L 8.546875 -7.25 C 7.742188 -8 6.800781 -8.375 5.71875 -8.375 C 4.726562 -8.375 3.882812 -8.035156 3.1875 -7.359375 C 2.5 -6.691406 2.15625 -5.875 2.15625 -4.90625 C 2.15625 -3.925781 2.5 -3.097656 3.1875 -2.421875 C 3.882812 -1.742188 4.734375 -1.40625 5.734375 -1.40625 C 6.492188 -1.40625 7.25 -1.632812 8 -2.09375 Z M 8 -4.8125 "/></g></g></g></svg>